<svg xmlns="http://www.w3.org/2000/svg" xmlns:xlink="http://www.w3.org/1999/xlink" width="216" height="215" viewBox="0 0 216 215">
  <defs>
    <clipPath id="clip-Größe_Auswahl_1">
      <rect width="216" height="215"/>
    </clipPath>
  </defs>
  <g id="Größe_Auswahl_1" data-name="Größe Auswahl – 1" clip-path="url(#clip-Größe_Auswahl_1)">
    <g id="undraw_doll_play_evbw" transform="translate(32 46.636)">
      <path id="Pfad_11984" data-name="Pfad 11984" d="M212.171,178.088l-.941-.585c-.09-.055-.178-.115-.268-.172a8.951,8.951,0,0,0,.9-17.439l.046,3.688-2.026-4.012h-.025a8.953,8.953,0,0,0-9.358,8.524c-.009.172,0,.339,0,.508a10.705,10.705,0,0,1-1.769-2.612c-.857-1.913-.873-4.079-.806-6.714.135-5.219.36-10.48.653-15.722a8.95,8.95,0,0,0,7.949-8.47c.012-.274.007-.543,0-.812a1.288,1.288,0,0,0-.01-.2c-.018-.26-.042-.517-.082-.772a.681.681,0,0,0-.022-.123c-.036-.215-.081-.428-.132-.637-.019-.079-.039-.15-.06-.235-.063-.229-.132-.449-.212-.676-.027-.073-.058-.15-.087-.218-.063-.163-.132-.324-.2-.483-.039-.084-.076-.167-.117-.25-.012-.021-.019-.043-.031-.064h0a8.948,8.948,0,0,0-10.51-4.54l.06,4.8-2-3.966a8.908,8.908,0,0,0-4.269,9.647h-.009c.013.064.033.126.048.188.028.118.058.235.091.351.042.15.09.3.139.449.037.111.073.22.115.329.061.159.13.313.2.467.04.09.076.182.12.271q.17.348.371.677c.046.078.1.15.15.226.1.15.191.3.3.438.064.088.133.173.2.259.1.124.2.247.3.365.073.085.15.167.226.248.111.117.223.229.339.338.078.073.15.15.235.218.132.118.269.229.408.338.07.055.139.112.211.166q.319.224.656.449c.042.025.088.046.13.072.19.111.381.217.579.313.085.042.172.079.259.118.161.072.324.142.492.206l.3.1c.164.055.332.108.5.15.1.027.2.055.3.079.182.043.369.079.558.112l.036.007q-.184,3.318-.329,6.638a8.947,8.947,0,0,0-12.422-3.888l1.582,4.337-3.255-3.125a8.921,8.921,0,0,0-2.892,6.182,8.748,8.748,0,0,0,.215,2.472,8.948,8.948,0,0,0,16.458,2.437c0,.224-.015.449-.021.674-.06,2.324-.135,5.216,1.024,7.8a15.789,15.789,0,0,0,3.29,4.446c.812.828,1.654,1.631,2.517,2.408a8.986,8.986,0,0,0,3.233,2.692c1.418,1.078,2.892,2.11,4.408,3.058l.948.589c.852.528,1.726,1.071,2.581,1.634-.15-.015-.3-.031-.449-.039a8.956,8.956,0,0,0-8.814,5.832l5.593,4.55-6.152-1.427a8.956,8.956,0,0,0,12.833,8.063l-.41.511q-.413.513-.815,1.02c-3.64,4.61-4.652,8.986-2.85,12.322l2.192-1.183c-1.754-3.248.884-7.405,2.612-9.594q.395-.5.8-1c2.325-2.889,4.96-6.164,4.9-10.181C222.769,184.668,216.893,181.019,212.171,178.088Z" transform="translate(-164.898 -125.75)" fill="#f2f2f2"/>
      <path id="Pfad_11985" data-name="Pfad 11985" d="M765.044,381.276l.568-.354.161-.1a5.412,5.412,0,0,1-.547-10.545l-.028,2.23,1.226-2.426h.015a5.415,5.415,0,0,1,5.66,5.156v.3a6.452,6.452,0,0,0,1.069-1.579,9.231,9.231,0,0,0,.487-4.06c-.072-3.151-.221-6.337-.393-9.5a5.41,5.41,0,0,1-4.808-5.122c-.007-.164,0-.329,0-.49v-.123c.01-.157.025-.313.049-.465a.439.439,0,0,1,.013-.075c.022-.13.049-.259.079-.386l.036-.15c.039-.138.081-.274.129-.408.017-.045.036-.088.052-.132.039-.1.081-.2.124-.3.024-.051.046-.1.072-.15a.1.1,0,0,1,.018-.039h0a5.409,5.409,0,0,1,6.357-2.744l-.037,2.9,1.213-2.393a5.383,5.383,0,0,1,2.581,5.832h0c-.009.039-.021.075-.03.114-.016.072-.034.142-.055.212s-.054.179-.084.268-.045.133-.069.2c-.037.1-.079.19-.121.283-.024.054-.046.109-.072.163-.069.141-.15.277-.224.41-.028.046-.06.091-.09.138q-.085.135-.179.265c-.039.052-.081.1-.121.15-.06.076-.12.15-.182.221s-.091.1-.138.15-.135.138-.2.2c-.046.045-.093.09-.142.132-.079.072-.163.139-.247.2l-.127.1c-.129.094-.26.184-.4.268l-.079.043c-.114.067-.23.13-.35.19l-.15.07c-.1.043-.2.087-.3.124l-.178.064c-.1.034-.2.064-.3.093l-.181.048c-.111.027-.224.048-.338.069h-.022q.112,2.005.2,4.014A5.407,5.407,0,0,1,782.473,362l-.956,2.621,1.968-1.89a5.4,5.4,0,0,1,1.75,3.738,5.292,5.292,0,0,1-.138,1.5,5.412,5.412,0,0,1-9.953,1.474c0,.135.009.272.012.408a10.705,10.705,0,0,1-.619,4.715,9.518,9.518,0,0,1-1.993,2.692q-.739.748-1.522,1.457a5.428,5.428,0,0,1-1.955,1.625q-1.287.991-2.663,1.856l-.574.356c-.514.319-1.047.648-1.561.988.091-.009.182-.019.274-.024a5.418,5.418,0,0,1,5.331,3.525l-3.383,2.751,3.72-.863a5.416,5.416,0,0,1-7.761,4.876l.251.313c.166.206.332.411.493.616,2.2,2.787,2.813,5.434,1.723,7.451l-1.325-.716c1.06-1.963-.535-4.477-1.581-5.8-.158-.2-.322-.4-.484-.6-1.406-1.747-3-3.726-2.961-6.156C758.63,385.249,762.188,383.045,765.044,381.276Z" transform="translate(-657.991 -316.151)" fill="#f2f2f2"/>
      <ellipse id="Ellipse_405" data-name="Ellipse 405" cx="76.862" cy="6.729" rx="76.862" ry="6.729" transform="translate(0 83.48)" fill="#f2f2f2"/>
      <path id="Pfad_11986" data-name="Pfad 11986" d="M172.99,622.233a2.476,2.476,0,0,1,.642-2.569,4.147,4.147,0,0,0,1.273-2.436c-.022-1.346-1.451-2.14-2.591-2.855a12.567,12.567,0,0,1-2.327-1.871,3.409,3.409,0,0,1-.715-.957,3.88,3.88,0,0,1-.215-1.7q.076-2.88.286-5.756" transform="translate(-156.63 -532.597)" fill="none" stroke="#3f3d56" stroke-miterlimit="10" stroke-width="4"/>
      <path id="Pfad_11987" data-name="Pfad 11987" d="M156.47,592.007a2.094,2.094,0,0,1,1.047-1.72l.47.93-.015-1.126a2.126,2.126,0,0,1,.692-.084,2.094,2.094,0,1,1-2.2,2Z" transform="translate(-145.929 -520.619)" fill="#57b894"/>
      <path id="Pfad_11988" data-name="Pfad 11988" d="M180.227,681.013a2.094,2.094,0,1,0-.1-1.69l1.311,1.066L180,680.059A2.093,2.093,0,0,0,180.227,681.013Z" transform="translate(-165.943 -595.421)" fill="#57b894"/>
      <path id="Pfad_11989" data-name="Pfad 11989" d="M177.107,647.269a2.093,2.093,0,0,0,.665-4.117l.012.864-.476-.941h0a2.094,2.094,0,0,0-2.194,2,2.069,2.069,0,0,0,.09.716A2.093,2.093,0,0,0,177.107,647.269Z" transform="translate(-161.787 -565.751)" fill="#57b894"/>
      <path id="Pfad_11990" data-name="Pfad 11990" d="M143,624.655a2.094,2.094,0,1,0-.929-3.928l.371,1.017-.763-.733A2.093,2.093,0,0,0,141,622.46a2.062,2.062,0,0,0,.052.579A2.094,2.094,0,0,0,143,624.655Z" transform="translate(-132.777 -546.527)" fill="#57b894"/>
      <path id="Pfad_11991" data-name="Pfad 11991" d="M157.028,599.1c.484.052.956.2,1.442.233a1.567,1.567,0,0,0,1.328-.464,6.481,6.481,0,0,0,.387-.683,1.5,1.5,0,0,1,.529-.5,2.094,2.094,0,1,1-3.924,1.392A1.483,1.483,0,0,1,157.028,599.1Z" transform="translate(-146.204 -527.154)" opacity="0.1"/>
      <path id="Pfad_11992" data-name="Pfad 11992" d="M143.341,631.451a2.094,2.094,0,0,0,2-2.991,1.551,1.551,0,0,0-.422.422,6.873,6.873,0,0,1-.416.694,1.719,1.719,0,0,1-1.392.487c-.507-.022-1-.167-1.5-.214-.07,0-.141-.01-.212-.012A2.094,2.094,0,0,0,143.341,631.451Z" transform="translate(-133.116 -553.323)" opacity="0.1"/>
      <path id="Pfad_11993" data-name="Pfad 11993" d="M177.607,654.325a2.094,2.094,0,0,0,2.013-2.955,1.718,1.718,0,0,0-.449.426c-.163.23-.265.5-.449.709a1.948,1.948,0,0,1-1.485.52c-.535-.012-1.021-.139-1.537-.179A2.094,2.094,0,0,0,177.607,654.325Z" transform="translate(-162.286 -572.807)" opacity="0.1"/>
      <path id="Pfad_11994" data-name="Pfad 11994" d="M181.52,688.642a2.1,2.1,0,0,0,3.827-1.712,2.068,2.068,0,0,0-.461.411,9.13,9.13,0,0,1-.562.748,2.614,2.614,0,0,1-1.739.612A8.968,8.968,0,0,1,181.52,688.642Z" transform="translate(-167.236 -603.05)" opacity="0.1"/>
      <path id="Pfad_11995" data-name="Pfad 11995" d="M181.51,713.98a6.066,6.066,0,0,1-2.156-.407c-.5-.356-2.542-.779-2.671-.209s-2.49,2.841-.621,2.85a15.89,15.89,0,0,0,4.845-.6C181.406,715.308,181.51,713.98,181.51,713.98Z" transform="translate(-161.985 -625.294)" fill="#656380"/>
      <path id="Pfad_11996" data-name="Pfad 11996" d="M176.065,721.081a15.952,15.952,0,0,0,4.844-.6c.38-.232.531-1.06.582-1.443h.055s-.1,1.337-.6,1.645a15.8,15.8,0,0,1-4.845.6c-.54,0-.725-.2-.715-.48C175.458,720.978,175.663,721.077,176.065,721.081Z" transform="translate(-162.02 -630.358)" opacity="0.2"/>
      <path id="Pfad_11997" data-name="Pfad 11997" d="M675.1,346.725a8.3,8.3,0,0,1,2.95,5.333c.1.6.141,1.22.238,1.827a10.644,10.644,0,0,0,3.629,6.4,1.944,1.944,0,0,1-1.815-.049,12.37,12.37,0,0,0,2.285,4.672,9.535,9.535,0,0,1-3.193-2.62,8.036,8.036,0,0,0,1.624,6.145,6.421,6.421,0,0,1-3.424-4.058l1.427,3.762a3.975,3.975,0,0,1-2.056-1.794,14.568,14.568,0,0,1-2.328-9.78c.177-1.44.57-2.855.634-4.3a5.256,5.256,0,0,0-1.3-4.021,4.638,4.638,0,0,0-2.953-1.2c-.676-.048-2.427.492-1.765-.725C670.067,344.457,673.919,345.824,675.1,346.725Z" transform="translate(-581.74 -312.583)" fill="#3f3d56"/>
      <path id="Pfad_11998" data-name="Pfad 11998" d="M674.06,343.847l.855,2.046c.374.3.568-.287.7-.16a3.482,3.482,0,0,1,.449.558l.046-.025-1.255-2.8C674.423,343.085,674.21,343.622,674.06,343.847Z" transform="translate(-586.123 -310.832)" fill="#6c63ff"/>
      <ellipse id="Ellipse_406" data-name="Ellipse 406" cx="9.192" cy="8.847" rx="9.192" ry="8.847" transform="translate(74.033 31.636)" fill="#3f3d56"/>
      <path id="Pfad_11999" data-name="Pfad 11999" d="M483.921,684.876a14.217,14.217,0,0,0-5.5.311,4.284,4.284,0,0,1-2,.416,3.3,3.3,0,0,1-1.75-1.237,4.738,4.738,0,0,1-1.258-1.983,2.724,2.724,0,0,1,.221-1.766.728.728,0,0,1,.166-.245.809.809,0,0,1,.573-.127c1.729.073,3.468.5,5.171.2,1-.177,2.961-.909,3.543.35C483.335,681.314,482.923,684.8,483.921,684.876Z" transform="translate(-415.432 -597.216)" fill="#575a89"/>
      <path id="Pfad_12000" data-name="Pfad 12000" d="M356.362,625.971a51.074,51.074,0,0,0-6.69,2.514l-4.872,2.094,1.44,3.565c.124.3-.111.281.188.416a2.6,2.6,0,0,0,1.439.226c3.282-1.255,7.058-.537,10.36-1.741a19.79,19.79,0,0,1,3.631-1.346c1.5-.241,3.079.221,4.526-.235a.748.748,0,0,0,.4-.244.757.757,0,0,0,.084-.482,8.009,8.009,0,0,0-1.144-3.45c-.4-.7-1.029-2.094-1.817-2.435-.89-.381-2.627.177-3.555.314A34.242,34.242,0,0,0,356.362,625.971Z" transform="translate(-306.1 -550.145)" fill="#ffc1c7"/>
      <path id="Pfad_12001" data-name="Pfad 12001" d="M305.743,667.2a14.189,14.189,0,0,0-5.2,1.814,4.283,4.283,0,0,1-1.806.95,3.3,3.3,0,0,1-2.022-.707,4.724,4.724,0,0,1-1.756-1.56,2.732,2.732,0,0,1-.274-1.76.733.733,0,0,1,.091-.28.8.8,0,0,1,.517-.28,30.224,30.224,0,0,0,5.512-1.9c.909-.449,2.108-1.029,3.015.021C304.2,663.936,304.761,667.41,305.743,667.2Z" transform="translate(-263.442 -582.621)" fill="#575a89"/>
      <path id="Pfad_12002" data-name="Pfad 12002" d="M621.158,445.294a2.856,2.856,0,0,0-.142,1.092v2.76a3.451,3.451,0,0,0,.139,1.175,3.049,3.049,0,0,0,.942,1.2,12.936,12.936,0,0,0,4.248,2.449,4.532,4.532,0,0,0,2.7.256,4.626,4.626,0,0,0,1.4-.76,15.839,15.839,0,0,0,3.1-2.983c.9-1.147,1.676-2.627,1.228-4.017a4.884,4.884,0,0,1-3.634-3.263,4.624,4.624,0,0,0-.616-1.594c-.772-.954-2.267-.686-3.439-.329-1.138.345-3.115.546-3.958,1.413-.333.342-.461.9-.787,1.279C621.949,444.425,621.4,444.709,621.158,445.294Z" transform="translate(-541.006 -393.852)" fill="#ffc1c7"/>
      <path id="Pfad_12003" data-name="Pfad 12003" d="M621.158,445.294a2.856,2.856,0,0,0-.142,1.092v2.76a3.451,3.451,0,0,0,.139,1.175,3.049,3.049,0,0,0,.942,1.2,12.936,12.936,0,0,0,4.248,2.449,4.532,4.532,0,0,0,2.7.256,4.626,4.626,0,0,0,1.4-.76,15.839,15.839,0,0,0,3.1-2.983c.9-1.147,1.676-2.627,1.228-4.017a4.884,4.884,0,0,1-3.634-3.263,4.624,4.624,0,0,0-.616-1.594c-.772-.954-2.267-.686-3.439-.329-1.138.345-3.115.546-3.958,1.413-.333.342-.461.9-.787,1.279C621.949,444.425,621.4,444.709,621.158,445.294Z" transform="translate(-541.006 -393.852)" opacity="0.1"/>
      <circle id="Ellipse_407" data-name="Ellipse 407" cx="7.413" cy="7.413" r="7.413" transform="translate(78.135 36.529)" fill="#ffc1c7"/>
      <path id="Pfad_12004" data-name="Pfad 12004" d="M740.974,517.13c.386.55.721,1.135,1.123,1.673a16.424,16.424,0,0,0,2.991,2.841l6.119,4.9c1.708,1.368,3.511,2.781,5.663,3.178a2.142,2.142,0,0,0,2.074-.48,1.8,1.8,0,0,0-.416-2.336,8.458,8.458,0,0,0-2.3-1.222c-3.344-1.554-5.368-4.935-7.722-7.776-2.068-2.493-4.5-4.658-6.753-6.982-2.393-2.47-4.286-5.337-6.569-7.866a8.291,8.291,0,0,0-2.581,4.187c-.22,1.28.513,2.218,1.346,3.107C736.165,512.743,739.087,514.444,740.974,517.13Z" transform="translate(-635.88 -446.675)" fill="#ffc1c7"/>
      <path id="Pfad_12005" data-name="Pfad 12005" d="M730.3,480.2c-.027,2.113-1.823,3.794-2.285,5.854a6.92,6.92,0,0,1-.242,1,3.5,3.5,0,0,1-.936,1.219,4.661,4.661,0,0,1-2.174,1.29c-.1.019.3-6.928.44-7.573C725.534,479.908,728.556,480.387,730.3,480.2Z" transform="translate(-629.142 -427.234)" fill="#ff6584"/>
      <path id="Pfad_12006" data-name="Pfad 12006" d="M483.774,463.614a8.946,8.946,0,0,0,.585,3.662,4.314,4.314,0,0,0,2.606,2.5,6.556,6.556,0,0,0,1.957.176,5.05,5.05,0,0,0,1.573-.2,3.81,3.81,0,0,0,2.105-2.267c.4-.984.576-2.046.908-3.055.173-.531.495-1.126,1.047-1.175a1.575,1.575,0,0,1,.966.374l2.991,2.026a19.458,19.458,0,0,1-1.255,10.21,15.513,15.513,0,0,0-1,2.947c-.348,2.108.535,4.2,1.249,6.215.52,1.468.957,2.965,1.4,4.461l1.1,3.77a5.611,5.611,0,0,1,.326,2.692,1.924,1.924,0,0,1-1.9,1.629c-.253-.028-.526-.123-.748,0-.54.3.061,1.111.012,1.729-.063.8-1.144.97-1.944.953-3.975-.088-7.9.769-11.839,1.291s-8.06.691-11.781-.707a29.323,29.323,0,0,1-4.533-2.337c-2.774-1.645-5.706-3.451-7.069-6.373a31.721,31.721,0,0,0-1.62-3.9,5.784,5.784,0,0,1-1.123-2.019,2.6,2.6,0,0,1,1.645-2.571,8.733,8.733,0,0,1,3.221-.526,5.982,5.982,0,0,0,3.14-.8c.976-.668,1.575-1.854,2.66-2.327a9.683,9.683,0,0,1,1.465-.369,6.959,6.959,0,0,0,1.883-.845,13.878,13.878,0,0,0,6.343-13.6,10.841,10.841,0,0,1-.15-1.585.477.477,0,0,1,.051-.263.419.419,0,0,1,.215-.142c.691-.254,1.474-.118,2.174-.347.529-.173.972-.543,1.482-.767a1.372,1.372,0,0,1,1.557.15A1.846,1.846,0,0,1,483.774,463.614Z" transform="translate(-402.177 -411.687)" fill="#ff6584"/>
      <path id="Pfad_12007" data-name="Pfad 12007" d="M606.883,364.981c-.528-1.884-2.925-3.006-3.278-4.921a3.307,3.307,0,0,1,.985-2.79,9.127,9.127,0,0,1,2.6-1.748,8.5,8.5,0,0,1,4.486-1.2c1.633.15,3.719.438,4.987,1.442.9.709,1.146,2.183,1.422,3.242a2.663,2.663,0,0,1-1.108,2.841,6.832,6.832,0,0,1-3.764.651c-1.3,0-2.756.164-3.559,1.108a9.5,9.5,0,0,0-.927,1.776,1.815,1.815,0,0,1-1.617,1.087Z" transform="translate(-526.169 -320.159)" fill="#3f3d56"/>
      <path id="Pfad_12008" data-name="Pfad 12008" d="M536.479,497.666a9.173,9.173,0,0,0-1.2,2.42,5.171,5.171,0,0,0,.764,4.106,7,7,0,0,0,3.359,2.581c.532.2,1.084.353,1.611.571,2.339.97,4.075,3.258,6.566,3.719a1.859,1.859,0,0,0,1.059-.051c.8-.338.938-1.385.962-2.243a2.661,2.661,0,0,0-.17-1.267,2.257,2.257,0,0,0-.686-.748c-1.783-1.365-4.063-1.884-6.016-2.991a3.426,3.426,0,0,1-1.953-2.33c-.133-1.144.713-2.135,1.386-3.071,1.654-2.3,3.06-6.025,2.266-8.89-1.119-4.038-3.873,1.663-4.609,2.841Q538.152,494.988,536.479,497.666Z" transform="translate(-467.973 -433.907)" fill="#ffc1c7"/>
      <path id="Pfad_12009" data-name="Pfad 12009" d="M563.491,474.327a15.914,15.914,0,0,0-1.077,1.624,6.789,6.789,0,0,1-1.944,1.908,3.13,3.13,0,0,1,2.476.435c.543.489.668,1.28,1.021,1.92a2.362,2.362,0,0,0,1.237,1.105,1.717,1.717,0,0,0,1.612-.218,3.021,3.021,0,0,0,.787-2.417l.031-1.579a2.484,2.484,0,0,0-.377-1.679,3.5,3.5,0,0,0-.885-.619C565.185,474.076,564.826,472.794,563.491,474.327Z" transform="translate(-489.519 -421.627)" fill="#ff6584"/>
      <path id="Pfad_12010" data-name="Pfad 12010" d="M597.7,396.734c.2-.834-.363-1.7-.212-2.542a1.558,1.558,0,0,1,.71-1.036c.208-.127.449-.2.659-.32a1.986,1.986,0,0,0,.837-2.445,3.427,3.427,0,0,0-1.685-1.513,2.6,2.6,0,0,0-2.333-.314c-.879.462-1,1.645-1.015,2.644a7.967,7.967,0,0,0,.22,2.428,6.524,6.524,0,0,0,1.3,2.282C596.281,396.027,597.56,397.305,597.7,396.734Z" transform="translate(-518.591 -349.154)" fill="#3f3d56"/>
      <path id="Pfad_12011" data-name="Pfad 12011" d="M542.642,409.116c-.674,2.04-2.991,2.888-4.612,4.337a2.118,2.118,0,0,0,.121-.719,6.154,6.154,0,0,1,.021-1.771,6.773,6.773,0,0,1-3.439,2.2l-.655-6.6a7.646,7.646,0,0,1-4.278,4.709c1.857-3.327,2.423-7.194,3.021-10.957a27.231,27.231,0,0,1,.622-3.14,14.13,14.13,0,0,1,1.688-3.783,9.075,9.075,0,0,1,1.645-1.944,2.633,2.633,0,0,1,2.076-.781h0c1.223.23.731.83,0,1.38-.58.434-1.313.839-1.486,1.012a1.764,1.764,0,0,0-.429.706,4.37,4.37,0,0,0,.389,2.829,40.668,40.668,0,0,0,3.421,6.523,17.772,17.772,0,0,1,1.645,2.816A4.56,4.56,0,0,1,542.642,409.116Z" transform="translate(-463.435 -351.068)" fill="#3f3d56"/>
      <path id="Pfad_12012" data-name="Pfad 12012" d="M577.306,391.442l.2,2.209c-.193.434-.635.01-.692.185a3.425,3.425,0,0,0-.15.7h-.052l-.2-3.064C576.63,390.936,577.069,391.315,577.306,391.442Z" transform="translate(-503.075 -351.537)" fill="#6c63ff"/>
      <circle id="Ellipse_408" data-name="Ellipse 408" cx="1.454" cy="1.454" r="1.454" transform="translate(118.856 70.039)" fill="#3f3d56"/>
      <path id="Pfad_12013" data-name="Pfad 12013" d="M871.569,674.437a7.761,7.761,0,0,1-.319,3.151,2.334,2.334,0,0,1-.209.553,5.872,5.872,0,0,1-.356.48,4.188,4.188,0,0,0-.52,1.125,31.629,31.629,0,0,0-.929,3.306.226.226,0,0,0,0,.141c.034.081.15.093.23.091h1.141c.042-.078-.034-.163-.082-.238-.164-.253,0-.58.136-.845a8.992,8.992,0,0,0,.8-2.034,5.479,5.479,0,0,1,.269-.884,8.818,8.818,0,0,1,.588-.953,8.061,8.061,0,0,0,.558-1.177,7.581,7.581,0,0,0,.55-1.726,6.877,6.877,0,0,0-.012-1.7.108.108,0,0,0-.124-.123l-1.531-.078c-.316-.016-.39-.085-.343.224C871.457,673.978,871.536,674.2,871.569,674.437Z" transform="translate(-752.103 -591.636)" fill="#575a89"/>
      <path id="Pfad_12014" data-name="Pfad 12014" d="M871.569,674.437a7.761,7.761,0,0,1-.319,3.151,2.334,2.334,0,0,1-.209.553,5.872,5.872,0,0,1-.356.48,4.188,4.188,0,0,0-.52,1.125,31.629,31.629,0,0,0-.929,3.306.226.226,0,0,0,0,.141c.034.081.15.093.23.091h1.141c.042-.078-.034-.163-.082-.238-.164-.253,0-.58.136-.845a8.992,8.992,0,0,0,.8-2.034,5.479,5.479,0,0,1,.269-.884,8.818,8.818,0,0,1,.588-.953,8.061,8.061,0,0,0,.558-1.177,7.581,7.581,0,0,0,.55-1.726,6.877,6.877,0,0,0-.012-1.7.108.108,0,0,0-.124-.123l-1.531-.078c-.316-.016-.39-.085-.343.224C871.457,673.978,871.536,674.2,871.569,674.437Z" transform="translate(-752.103 -591.636)" opacity="0.1"/>
      <path id="Pfad_12015" data-name="Pfad 12015" d="M883.771,661.948a2.08,2.08,0,0,0-.534,1.5,2.116,2.116,0,0,0,.68,1.015,9.251,9.251,0,0,1,2.716,4.084c.1.416.15.843.239,1.262a13.8,13.8,0,0,0,.733,2.209l.763,1.928a1.153,1.153,0,0,0,1.1-.73.477.477,0,0,1-.289-.187,3.538,3.538,0,0,1-.476-1.578c-.091-.607-.215-1.208-.339-1.809l-.544-2.657c-.063-.308-.126-.615-.208-.918a19.336,19.336,0,0,1-1.014-3.489.813.813,0,0,0-.149-.505.748.748,0,0,0-.523-.173A6.8,6.8,0,0,0,883.771,661.948Z" transform="translate(-764.003 -581.707)" fill="#575a89"/>
      <path id="Pfad_12016" data-name="Pfad 12016" d="M867.907,735.9a1.12,1.12,0,0,0-.253-.033.525.525,0,0,0-.413.226,1.009,1.009,0,0,0-.111.245l-.111.315a.349.349,0,0,0-.015.286.3.3,0,0,0,.15.115,2.762,2.762,0,0,0,.858.15c.283.029.562.078.84.13.1.018.191.036.289.046a3.531,3.531,0,0,0,.653-.019l.224-.022a.782.782,0,0,0,.22-.04.282.282,0,0,0,.163-.149.263.263,0,0,0-.208-.327c-.06-.012-.121,0-.181-.013a.823.823,0,0,1-.2-.06,3.8,3.8,0,0,1-.828-.4c-.07-.049-.15-.118-.136-.2a.454.454,0,0,1,.036-.1.388.388,0,0,0,0-.272c-.015-.037-.04-.076-.079-.081-.108-.013-.094.142-.111.2a.11.11,0,0,1-.136.082A6.093,6.093,0,0,1,867.907,735.9Z" transform="translate(-750.196 -644.513)" fill="#3f3d56"/>
      <path id="Pfad_12017" data-name="Pfad 12017" d="M916.079,736.227a.721.721,0,0,0,.15.438.353.353,0,0,0,.111.088.435.435,0,0,0,.2.031,1.586,1.586,0,0,0,.565-.114,1.921,1.921,0,0,1,.194-.073,2.477,2.477,0,0,1,.254-.037,6.55,6.55,0,0,0,.957-.347,2.328,2.328,0,0,0,.283-.093,1.318,1.318,0,0,0,.335-.262.861.861,0,0,0,.15-.184.819.819,0,0,0,.066-.371.1.1,0,0,0-.01-.057.076.076,0,0,0-.036-.028.522.522,0,0,0-.324,0,5.75,5.75,0,0,1-1.2.045.245.245,0,0,1-.114-.022.252.252,0,0,1-.072-.082l-.15-.244c-.043-.07-.112-.15-.191-.127a.15.15,0,0,0-.085.163.863.863,0,0,1,.009.2.263.263,0,0,1-.13.169.8.8,0,0,1-.2.079,1.545,1.545,0,0,0-.659.3C916.064,735.808,916.072,736.07,916.079,736.227Z" transform="translate(-791.948 -643.748)" fill="#3f3d56"/>
      <path id="Pfad_12018" data-name="Pfad 12018" d="M906.689,626.506a.922.922,0,0,0,.223-.241.991.991,0,0,0,.094-.333l.064-.4a1.213,1.213,0,0,1,.224-.628.422.422,0,0,1,.6-.063.529.529,0,0,1,.109.271,1.962,1.962,0,0,1-.482,1.627c-.182.2-.405.359-.6.549-.169.163-.314.348-.47.526a6.5,6.5,0,0,1-1.279,1.117,5.818,5.818,0,0,0,0-.927c-.033-.218-.121-.335.088-.477A15.714,15.714,0,0,0,906.689,626.506Z" transform="translate(-782.637 -550.158)" fill="#fbbebe"/>
      <path id="Pfad_12019" data-name="Pfad 12019" d="M886.543,613.07a.748.748,0,0,1-.283.564q.761.265,1.5.586a.523.523,0,0,1-.129-.363,1.837,1.837,0,0,1,.281-.981.234.234,0,0,0,.046-.129c0-.1-.12-.141-.214-.161a5.344,5.344,0,0,0-.972-.141c-.141,0-.3-.049-.275.13A1.974,1.974,0,0,1,886.543,613.07Z" transform="translate(-766.591 -539.697)" fill="#fbbebe"/>
      <circle id="Ellipse_409" data-name="Ellipse 409" cx="1.189" cy="1.189" r="1.189" transform="translate(119.744 71.111)" fill="#fbbebe"/>
      <path id="Pfad_12020" data-name="Pfad 12020" d="M886.1,620.231a1.441,1.441,0,0,0-.15-.253,5.225,5.225,0,0,0-.713-.875,4.5,4.5,0,0,0-.677-.5,1.5,1.5,0,0,0-.425-.2,1.643,1.643,0,0,0-.271-.037l-.31-.024a.255.255,0,0,0-.082,0,.173.173,0,0,0-.1.209.507.507,0,0,0,.138.217c.013.63-.266,1.252-.3,1.88-.066,1.1.6,2.123.659,3.224a.381.381,0,0,1-.015.15c-.009.022-.023.043-.033.066a.625.625,0,0,0-.037.223,1.131,1.131,0,0,1-.339.707.5.5,0,0,0,.188.149,3.334,3.334,0,0,0,.422.1,3.291,3.291,0,0,0,1.1.188.985.985,0,0,0,.085-.32c.052-.033.114.037.121.1s0,.135.039.179a.182.182,0,0,0,.15.03,6.493,6.493,0,0,0,.67-.157,1.268,1.268,0,0,1,.68,0,.179.179,0,0,0-.01-.2.9.9,0,0,1-.106-.182.4.4,0,0,1-.013-.12,5.1,5.1,0,0,0,0-1.047c-.021-.1-.052-.2-.073-.3a2.628,2.628,0,0,1-.028-.6c0-.2-.019-.414-.022-.616a2.309,2.309,0,0,0-.016-.25c-.013-.087-.04-.17-.048-.259-.022-.221.067-.449.054-.664C886.621,620.721,886.229,620.537,886.1,620.231Z" transform="translate(-763.988 -544.714)" fill="#6c63ff"/>
      <path id="Pfad_12021" data-name="Pfad 12021" d="M875.515,629.784a12.91,12.91,0,0,0-.568,2.379l-.326,1.889a9.011,9.011,0,0,0-.181,1.612,1.716,1.716,0,0,1-.031.449,2.37,2.37,0,0,1-.278.526,1.743,1.743,0,0,0-.188,1.177c.034.169.126.36.3.38a.411.411,0,0,0,.345-.212,2.694,2.694,0,0,0,.363-.9,20.248,20.248,0,0,0,.565-3.14,2.953,2.953,0,0,1,.055-.4,2.836,2.836,0,0,1,.138-.4l.374-.926a14.783,14.783,0,0,1,.972-2.094c-.39-.112-.8-.244-1.187-.356A1.133,1.133,0,0,0,875.515,629.784Z" transform="translate(-756.088 -554.434)" fill="#fbbebe"/>
      <path id="Pfad_12022" data-name="Pfad 12022" d="M883.582,628.621a4.439,4.439,0,0,0-.834-.048.18.18,0,0,1-.112-.03c-.057-.048-.033-.139,0-.208l.135-.325a.47.47,0,0,1,.109-.179.449.449,0,0,1,.256-.087,2.28,2.28,0,0,1,.9.034,1.061,1.061,0,0,1,.686.531.363.363,0,0,1,.007.356c-.106.15-.344.322-.52.238A3.189,3.189,0,0,0,883.582,628.621Z" transform="translate(-763.479 -552.69)" fill="#6c63ff"/>
      <path id="Pfad_12023" data-name="Pfad 12023" d="M877.6,592.415a1.214,1.214,0,0,0-.662.19,1.453,1.453,0,0,0-1.427-.333.831.831,0,1,0-.961.962,1.433,1.433,0,0,0-.064.428,1.453,1.453,0,0,0,2.855.389,1.239,1.239,0,0,0,.26.027.853.853,0,1,0,0-1.661Z" transform="translate(-756.047 -521.96)" fill="#3f3d56"/>
      <path id="Pfad_12024" data-name="Pfad 12024" d="M897.683,603.592a1.231,1.231,0,0,1-.26-.027,1.442,1.442,0,0,1-.193.419,1.323,1.323,0,0,0,.245.024.979.979,0,0,0,1.032-.748A1.141,1.141,0,0,1,897.683,603.592Z" transform="translate(-775.921 -531.891)" opacity="0.1"/>
      <path id="Pfad_12025" data-name="Pfad 12025" d="M876.157,596.219a1.454,1.454,0,0,1-1.389-1.881.832.832,0,0,1-.688-.818,1,1,0,0,1,.013-.15.832.832,0,0,0,.467,1.383,1.439,1.439,0,0,0-.064.428,1.454,1.454,0,0,0,2.841.434A1.452,1.452,0,0,1,876.157,596.219Z" transform="translate(-756.056 -523.48)" opacity="0.1"/>
    </g>
    <g id="Ellipse_410" data-name="Ellipse 410" transform="translate(13 12)" fill="none" stroke="#fff" stroke-width="7">
      <circle cx="94" cy="94" r="94" stroke="none"/>
      <circle cx="94" cy="94" r="90.5" fill="none"/>
    </g>
    <g id="Ellipse_411" data-name="Ellipse 411" transform="translate(132 160)" fill="#fff" stroke="#707070" stroke-width="1">
      <ellipse cx="6" cy="0.5" rx="6" ry="0.5" stroke="none"/>
      <ellipse cx="6" cy="0.5" rx="5.5" fill="none"/>
    </g>
    <line id="Linie_17" data-name="Linie 17" x2="126" y2="130" transform="translate(43.5 41.5)" fill="none" stroke="#fff" stroke-width="7"/>
  </g>
</svg>
